<svg width="538" height="356" viewBox="0 0 538 356" fill="none" xmlns="http://www.w3.org/2000/svg">
<path d="M88 117H456V312C456 317.523 451.523 322 446 322H98C92.4772 322 88 317.523 88 312V117Z" fill="#B4DEFF"/>
<path d="M88 117L271.476 272L456 117H88Z" fill="#71B4D4"/>
<path d="M88 289L128 322.5L88 356L48 322.5L88 289Z" fill="#2EE6C3"/>
<path d="M469 0L509 33.5L469 67L429 33.5L469 0Z" fill="#FF6B6B"/>
<path d="M509 67L538 92L509 117L480 92L509 67Z" fill="#A259FF"/>
<path d="M24 232L48 252L24 272L0 252L24 232Z" fill="#FFD500"/>
<path d="M259.044 227.045C266.869 222.687 276.426 222.848 284.1 227.467L312.778 244.728C320.883 249.606 325.54 258.641 324.811 268.073L324.015 278.379C323.418 286.111 318.771 292.948 311.802 296.35C306.984 298.701 301.471 299.201 296.309 297.755L278.147 292.667C273.92 291.483 269.455 291.433 265.203 292.521L244.166 297.907C238.9 299.255 233.321 298.615 228.496 296.111C222.149 292.816 217.788 286.655 216.79 279.573L215.394 269.671C213.951 259.437 218.956 249.369 227.986 244.341L259.044 227.045Z" fill="#466984"/>
<path d="M191.679 235.19C183.234 223.868 183.576 203.579 191.679 197.534C199.782 191.49 216.153 198.765 224.598 210.086C233.043 221.408 232.702 235.421 224.598 241.465C216.495 247.51 200.124 246.511 191.679 235.19Z" fill="#466984"/>
<path d="M351.528 235.496C359.973 224.175 359.631 203.886 351.527 197.841C343.424 191.796 327.054 199.071 318.608 210.393C310.163 221.714 310.505 235.728 318.608 241.772C326.711 247.817 343.082 246.818 351.528 235.496Z" fill="#466984"/>
<path d="M266.311 182.67C271.304 197.172 273.236 212.4 261.731 216.362C247.087 221.404 233.253 213.083 228.26 198.58C223.266 184.078 229.754 165.418 239.765 161.971C249.777 158.524 261.317 168.168 266.311 182.67Z" fill="#466984"/>
<path d="M277.892 182.894C272.899 197.397 270.966 212.625 282.472 216.586C297.116 221.628 310.95 213.307 315.943 198.805C320.936 184.302 314.449 165.643 304.437 162.195C294.426 158.748 282.885 168.392 277.892 182.894Z" fill="#466984"/>
<path d="M191.612 181C191.612 181 190.77 185.665 191.612 188.529C192.179 190.458 194 193.235 194 193.235C194 193.235 190.936 192.652 189.225 193.235C187.085 193.965 185.643 197 185.643 197C185.643 197 182.962 191.091 184.449 187.588C185.813 184.375 191.612 181 191.612 181Z" fill="#B4DEFF"/>
<path d="M351.91 181C351.91 181 352.584 186.248 351.91 189.471C351.456 191.64 350 194.765 350 194.765C350 194.765 352.451 194.108 353.82 194.765C355.532 195.585 356.686 199 356.686 199C356.686 199 358.83 192.353 357.641 188.412C356.549 184.797 351.91 181 351.91 181Z" fill="#B4DEFF"/>
<path d="M244.968 142.437C244.968 142.437 242.777 147.193 242.573 150.455C242.436 152.65 243.081 156.065 243.081 156.065C243.081 156.065 240.695 154.675 239.072 154.868C237.044 155.108 234.869 157.979 234.869 157.979C234.869 157.979 234.497 151.014 236.859 147.657C239.026 144.577 244.968 142.437 244.968 142.437Z" fill="#B4DEFF"/>
<path d="M299.298 142.437C299.298 142.437 301.489 147.193 301.693 150.455C301.83 152.65 301.185 156.065 301.185 156.065C301.185 156.065 303.571 154.675 305.194 154.868C307.222 155.108 309.398 157.979 309.398 157.979C309.398 157.979 309.769 151.014 307.407 147.657C305.24 144.577 299.298 142.437 299.298 142.437Z" fill="#B4DEFF"/>
</svg>
