<svg width="32" height="32" viewBox="0 0 32 32" fill="none" xmlns="http://www.w3.org/2000/svg">
<path fill-rule="evenodd" clip-rule="evenodd" d="M27.3734 6.04C27.55 5.85043 27.6462 5.5997 27.6416 5.34064C27.637 5.08157 27.5321 4.83439 27.3489 4.65117C27.1656 4.46795 26.9185 4.363 26.6594 4.35843C26.4003 4.35386 26.1496 4.45003 25.96 4.62667L4.62669 25.96C4.52844 26.0515 4.44964 26.1619 4.39498 26.2846C4.34032 26.4073 4.31094 26.5397 4.30857 26.674C4.3062 26.8082 4.3309 26.9416 4.38119 27.0661C4.43149 27.1906 4.50635 27.3038 4.6013 27.3987C4.69626 27.4937 4.80937 27.5685 4.93389 27.6188C5.05841 27.6691 5.19178 27.6938 5.32605 27.6915C5.46032 27.6891 5.59274 27.6597 5.71541 27.605C5.83807 27.5504 5.94847 27.4716 6.04002 27.3733L9.83602 23.5773C11.6587 24.436 13.756 25 16 25C19.5787 25 22.7867 23.564 25.0934 21.7933C26.2494 20.9067 27.204 19.9173 27.8787 18.9453C28.5347 18 29 16.964 29 16C29 15.036 28.5334 14 27.8787 13.0547C27.204 12.0827 26.2494 11.0947 25.0947 10.2067C24.7445 9.93733 24.3747 9.67822 23.9854 9.42933L27.3734 6.04ZM22.5334 10.8813L20.172 13.2427C20.8086 14.2042 21.0933 15.3562 20.9779 16.5036C20.8625 17.6509 20.354 18.7231 19.5386 19.5385C18.7231 20.3539 17.6509 20.8624 16.5036 20.9779C15.3562 21.0933 14.2042 20.8086 13.2427 20.172L11.3534 22.06C12.8274 22.6693 14.4051 22.9884 16 23C19.0494 23 21.84 21.7693 23.876 20.2067C24.892 19.4267 25.6947 18.5827 26.236 17.8053C26.7947 17 27 16.3693 27 16C27 15.6307 26.7947 15 26.236 14.1947C25.6947 13.4173 24.892 12.5733 23.876 11.7933C23.4582 11.4724 23.0116 11.1684 22.5334 10.8813ZM14.7054 18.708C15.2652 18.9754 15.8941 19.0626 16.5056 18.9577C17.117 18.8528 17.6809 18.5609 18.1196 18.1222C18.5582 17.6835 18.8501 17.1196 18.955 16.5082C19.06 15.8967 18.9727 15.2678 18.7054 14.708L14.7054 18.708Z" fill="#71B4D4"/>
<path d="M16 7C17.376 7 18.6987 7.21333 19.9347 7.57467C19.9888 7.59081 20.0377 7.62082 20.0767 7.66172C20.1156 7.70262 20.1432 7.75299 20.1567 7.80783C20.1701 7.86268 20.1691 7.92009 20.1535 7.97438C20.1379 8.02867 20.1085 8.07795 20.068 8.11733L18.9693 9.21733C18.9289 9.25823 18.8785 9.28796 18.8231 9.30361C18.7677 9.31927 18.7092 9.32032 18.6533 9.30667C17.7831 9.10602 16.8931 9.00317 16 9C12.9507 9 10.16 10.2307 8.124 11.7933C7.108 12.5733 6.30533 13.4173 5.764 14.1947C5.20533 15 5 15.6307 5 16C5 16.3693 5.20533 17 5.764 17.8053C6.236 18.4853 6.908 19.2147 7.748 19.908C7.90267 20.0347 7.91733 20.268 7.77467 20.4107L6.83067 21.356C6.77285 21.4146 6.69509 21.4494 6.61283 21.4533C6.53057 21.4573 6.44984 21.4302 6.38667 21.3773C5.52802 20.6697 4.76635 19.852 4.12133 18.9453C3.46667 18 3 16.964 3 16C3 15.036 3.46667 14 4.12133 13.0547C4.796 12.0827 5.75067 11.0947 6.90533 10.2067C9.21333 8.436 12.4213 7 16 7Z" fill="#71B4D4"/>
<path d="M16 11C16.1582 11 16.3142 11.0071 16.468 11.0213C16.7307 11.0467 16.8253 11.36 16.64 11.5467L15.0227 13.1627C14.5922 13.3119 14.2012 13.5568 13.879 13.879C13.5568 14.2012 13.3119 14.5922 13.1627 15.0227L11.5467 16.64C11.36 16.8267 11.0467 16.7307 11.0213 16.468C10.9562 15.7749 11.0365 15.0759 11.257 14.4157C11.4776 13.7554 11.8336 13.1485 12.3023 12.6338C12.771 12.119 13.3419 11.7079 13.9787 11.4265C14.6154 11.1452 15.3039 10.9999 16 11Z" fill="#71B4D4"/>
</svg>
