<svg width="26" height="18" viewBox="0 0 26 18" fill="none" xmlns="http://www.w3.org/2000/svg">
<path fill-rule="evenodd" clip-rule="evenodd" d="M8 9C8 7.67392 8.52678 6.40215 9.46447 5.46447C10.4021 4.52678 11.6739 4 13 4C14.3261 4 15.5979 4.52678 16.5355 5.46447C17.4732 6.40215 18 7.67392 18 9C18 10.3261 17.4732 11.5979 16.5355 12.5355C15.5979 13.4732 14.3261 14 13 14C11.6739 14 10.4021 13.4732 9.46447 12.5355C8.52678 11.5979 8 10.3261 8 9ZM13 6C12.2044 6 11.4413 6.31607 10.8787 6.87868C10.3161 7.44129 10 8.20435 10 9C10 9.79565 10.3161 10.5587 10.8787 11.1213C11.4413 11.6839 12.2044 12 13 12C13.7956 12 14.5587 11.6839 15.1213 11.1213C15.6839 10.5587 16 9.79565 16 9C16 8.20435 15.6839 7.44129 15.1213 6.87868C14.5587 6.31607 13.7956 6 13 6Z" fill="#71B4D4"/>
<path fill-rule="evenodd" clip-rule="evenodd" d="M2.764 7.19467C2.20533 8 2 8.63067 2 9C2 9.36933 2.20533 10 2.764 10.8053C3.30533 11.5827 4.108 12.4267 5.124 13.2067C7.16 14.7693 9.95067 16 13 16C16.0493 16 18.84 14.7693 20.876 13.2067C21.892 12.4267 22.6947 11.5827 23.236 10.8053C23.7947 10 24 9.36933 24 9C24 8.63067 23.7947 8 23.236 7.19467C22.6947 6.41733 21.892 5.57333 20.876 4.79333C18.84 3.23067 16.0493 2 13 2C9.95067 2 7.16 3.23067 5.124 4.79333C4.108 5.57333 3.30533 6.41733 2.764 7.19467ZM3.90533 3.20667C6.21333 1.436 9.42133 0 13 0C16.5787 0 19.7867 1.436 22.0933 3.20667C23.2493 4.09333 24.204 5.08267 24.8787 6.05467C25.5347 7 26 8.036 26 9C26 9.964 25.5333 11 24.8787 11.9453C24.204 12.9173 23.2493 13.9053 22.0947 14.7933C19.788 16.564 16.5787 18 13 18C9.42133 18 6.21333 16.564 3.90667 14.7933C2.75067 13.9067 1.796 12.9173 1.12133 11.9453C0.466667 11 0 9.964 0 9C0 8.036 0.466667 7 1.12133 6.05467C1.796 5.08267 2.75067 4.09467 3.90533 3.20667Z" fill="#71B4D4"/>
</svg>
